<svg xmlns="http://www.w3.org/2000/svg" width="121.58" height="32" viewBox="0 0 121.58 32"><defs><linearGradient id="a"><stop offset="0%" stop-color="#c69930"/><stop offset="10.11%" stop-color="#d09b2c"/><stop offset="30%" stop-color="#eee8bd"/><stop offset="35%" stop-color="#f5edb8"/><stop offset="40%" stop-color="#f6ea91"/><stop offset="41.26%" stop-color="#ead77e"/><stop offset="43.36%" stop-color="#dec263"/><stop offset="45.64%" stop-color="#d4b24d"/><stop offset="48.14%" stop-color="#cea63e"/><stop offset="50.96%" stop-color="#c99e34"/><stop offset="54.37%" stop-color="#c79a30"/><stop offset="60%" stop-color="#c69930"/><stop offset="64.3%" stop-color="#cba23d"/><stop offset="71.47%" stop-color="#d4b158"/><stop offset="78.68%" stop-color="#dcbe6e"/><stop offset="85.86%" stop-color="#e2c77d"/><stop offset="92.99%" stop-color="#e6cd85"/><stop offset="100%" stop-color="#e7cf88"/></linearGradient><linearGradient id="b"><stop offset="0%" stop-color="#a3a5a8"/><stop offset="10.11%" stop-color="#a6a8ab"/><stop offset="30%" stop-color="#e5e6e7"/><stop offset="35%" stop-color="#eaebec"/><stop offset="40%" stop-color="#e5e6e7"/><stop offset="40.76%" stop-color="#dedfe0"/><stop offset="43.36%" stop-color="#c8cacc"/><stop offset="46.24%" stop-color="#b7b9bb"/><stop offset="49.49%" stop-color="#acaeb0"/><stop offset="53.44%" stop-color="#a5a7aa"/><stop offset="60%" stop-color="#a3a5a8"/><stop offset="67.69%" stop-color="#b2b4b7"/><stop offset="78.67%" stop-color="#c3c5c7"/><stop offset="89.53%" stop-color="#cecfd1"/><stop offset="100%" stop-color="#d1d3d4"/></linearGradient></defs><path fill="#807F83" d="M11.41 31.21V1.52H.74C.33 1.52 0 1.2 0 .79S.33.05.74.05h22.82c.41 0 .74.33.74.74s-.33.74-.74.74H12.88v29.69c0 .41-.33.74-.74.74s-.73-.35-.73-.75m16.61 0c0 .4.33.74.74.74s.74-.33.74-.74V16.73h19.07v14.48c0 .41.33.74.74.74s.74-.33.74-.74V.79c0-.41-.33-.74-.74-.74s-.74.33-.74.74v14.47H29.48V.79c0-.4-.33-.74-.74-.74-.4 0-.74.33-.74.74.02 0 .02 30.42.02 30.42z"/><path fill="url(#a)" d="M69.33.06C61.22.21 54.6 6.4 53.77 14.32v.35c.03.13.08.24.17.35.14.15.34.24.54.24h25.6c.4-.01.72-.35.71-.75v-.01a.726.726 0 0 0-.71-.71H55.32c1.06-6.94 7.06-12.27 14.31-12.27 6.42 0 11.86 4.18 13.76 9.95.13.39.54.59.93.47.38-.13.59-.54.47-.92C82.72 4.75 76.87.19 69.93.06h-.6z"/><path fill="none" d="M0 0h121.58v32H0V0z"/><path fill="#C69930" d="M54.49 15.32v-.11h25.6c.35-.01.64-.3.65-.66 0-.18-.06-.35-.18-.49a.694.694 0 0 0-.47-.22H55.25l.01-.06c.52-3.4 2.24-6.51 4.85-8.77a14.51 14.51 0 0 1 9.51-3.54c6.3 0 11.85 4.02 13.81 9.99.12.36.5.55.85.43.17-.06.31-.18.39-.34s.09-.35.04-.52C82.58 4.5 76.52.11 69.63.11c-3.97 0-7.79 1.48-10.71 4.15a15.798 15.798 0 0 0-5.1 10.2c-.02.19.04.38.17.52s.31.22.5.22v.12c-.22 0-.43-.09-.58-.26a.809.809 0 0 1-.2-.61c.38-3.94 2.21-7.6 5.14-10.27C61.79 1.48 65.63 0 69.63 0c6.93 0 13.04 4.42 15.2 11 .14.41-.09.86-.5 1a.779.779 0 0 1-.99-.49v-.01a14.402 14.402 0 0 0-13.7-9.92c-3.47 0-6.83 1.25-9.44 3.52-2.57 2.23-4.28 5.3-4.81 8.64h24.7c.21.01.41.1.55.25.14.16.22.35.21.57-.01.41-.35.75-.76.76h-25.6z"/><path fill="none" d="M54.49 16.75c-.4 0-.73.32-.73.73v.07c.73 7.63 6.84 13.68 14.5 14.33h2.82c6.43-.58 11.75-4.96 13.7-10.89.13-.39-.08-.8-.47-.93-.39-.13-.8.08-.93.47-1.9 5.78-7.34 9.95-13.76 9.94-7.25 0-13.25-5.32-14.31-12.26h24.77c.4 0 .73-.33.73-.73s-.33-.73-.73-.73H54.49z"/><path fill="#A7A9AC" d="M69.63 32c-3.99 0-7.84-1.49-10.79-4.18a15.92 15.92 0 0 1-5.14-10.26c-.02-.22.05-.44.2-.61.15-.16.36-.26.58-.26h25.6c.44 0 .79.35.79.79 0 .43-.35.79-.79.79h-24.7c.53 3.34 2.23 6.4 4.81 8.63 2.62 2.27 5.97 3.51 9.43 3.51 6.25 0 11.76-3.98 13.71-9.91.14-.41.59-.64 1-.5s.64.59.5 1c-2.16 6.58-8.26 11-15.2 11z"/><path fill="url(#b)" d="M54.49 16.8c-.19 0-.38.08-.5.22a.66.66 0 0 0-.17.52c.38 3.91 2.19 7.53 5.1 10.19 2.93 2.67 6.75 4.15 10.71 4.15 6.88 0 12.95-4.39 15.1-10.91a.691.691 0 0 0-.43-.86.682.682 0 0 0-.86.42v.01c-1.96 5.97-7.53 10-13.81 9.98-3.5 0-6.88-1.26-9.52-3.54a14.454 14.454 0 0 1-4.85-8.77l-.01-.06h24.83c.38 0 .68-.31.68-.68s-.31-.68-.68-.68l-25.59.01z"/><path fill="#807F83" d="M89.24 31.21V.79c.01-.41.35-.73.76-.71.37.01.67.3.71.66v30.47c0 .41-.33.74-.74.73-.41 0-.73-.33-.73-.73m5.65.67a.731.731 0 0 1-.39-.96L107.33.5c.16-.37.59-.55.96-.39.17.07.31.21.39.39l12.84 30.42c.16.37-.02.8-.39.96-.37.16-.8-.02-.96-.39l-6.23-14.76h-11.86L95.84 31.5c-.12.27-.38.45-.68.45a.898.898 0 0 1-.27-.07m18.43-16.62l-5.31-12.58-5.31 12.59c0-.01 10.62-.01 10.62-.01z"/></svg>